<?xml version="1.0" encoding="UTF-8" standalone="no"?>
<!DOCTYPE svg PUBLIC "-//W3C//DTD SVG 20010904//EN"
              "http://www.w3.org/TR/2001/REC-SVG-20010904/DTD/svg10.dtd">

<svg xmlns="http://www.w3.org/2000/svg"
     width="16.5278in" height="11.8056in"
     viewBox="0 0 1190 850">
  <path id="pavimento"
        fill="none" stroke="black" stroke-width="1"
        d="M 1190.00,0.00
           C 1190.00,0.00 1190.00,455.00 1190.00,455.00
             1190.00,455.00 1125.00,430.58 1125.00,430.58
             1125.00,430.58 985.00,378.58 985.00,378.58
             985.00,378.58 907.00,349.58 907.00,349.58
             894.41,344.83 876.07,336.02 863.00,336.00
             863.00,336.00 835.00,336.00 835.00,336.00
             835.00,336.00 835.00,358.00 835.00,358.00
             835.00,358.00 836.00,374.00 836.00,374.00
             836.00,374.00 836.00,400.00 836.00,400.00
             836.00,400.00 536.00,400.00 536.00,400.00
             536.00,400.00 528.34,424.00 528.34,424.00
             528.34,424.00 513.69,466.00 513.69,466.00
             513.69,466.00 506.49,483.98 506.49,483.98
             506.49,483.98 499.00,485.00 499.00,485.00
             499.00,485.00 0.00,485.00 0.00,485.00
             0.00,485.00 0.00,0.00 0.00,0.00
             0.00,0.00 1190.00,0.00 1190.00,0.00 Z" />
</svg>
