<?xml version="1.0" encoding="UTF-8" standalone="no"?>
<!DOCTYPE svg PUBLIC "-//W3C//DTD SVG 20010904//EN"
              "http://www.w3.org/TR/2001/REC-SVG-20010904/DTD/svg10.dtd">

<svg xmlns="http://www.w3.org/2000/svg"
     width="16.5257in" height="11.8041in"
     viewBox="0 0 1190 850">
  <path id="revestimiento"
        fill="none" stroke="black" stroke-width="1"
        d="M 369.13,0.00
           C 369.13,0.00 369.13,321.00 369.13,321.00
             369.00,323.04 368.93,326.05 369.13,327.98
             371.82,338.28 383.04,334.41 390.00,332.42
             404.37,328.32 407.19,326.06 420.00,320.58
             424.87,318.50 432.72,315.12 438.00,315.18
             443.15,315.24 445.74,317.93 450.00,320.01
             452.93,321.43 457.74,322.67 461.00,323.58
             461.00,323.58 481.98,328.65 481.98,328.65
             486.73,330.88 486.58,334.01 489.41,335.44
             489.41,335.44 498.00,337.70 498.00,337.70
             503.87,339.77 509.43,342.84 514.00,347.09
             522.45,354.96 521.03,357.56 525.63,364.00
             528.74,368.33 532.84,370.91 534.86,376.00
             537.40,382.43 537.00,393.04 537.00,400.00
             537.00,400.00 593.00,400.00 593.00,400.00
             593.00,400.00 594.08,386.00 594.08,386.00
             594.08,386.00 594.08,324.00 594.08,324.00
             594.08,324.00 594.08,318.00 594.08,318.00
             596.20,307.21 610.63,310.17 614.85,308.26
             618.02,306.84 617.59,304.36 619.00,302.41
             620.27,300.67 622.15,299.95 624.00,299.00
             624.00,299.00 623.00,295.00 623.00,295.00
             629.07,294.14 630.44,293.08 637.00,293.00
             643.56,292.93 658.43,292.52 664.00,295.16
             665.55,295.89 673.44,301.08 674.61,302.27
             676.36,304.03 677.39,306.55 679.39,307.83
             683.65,310.55 697.74,307.82 699.92,319.00
             699.92,319.00 699.92,325.00 699.92,325.00
             699.92,325.00 699.92,344.00 699.92,344.00
             699.92,344.00 699.00,359.00 699.00,359.00
             699.00,359.00 699.00,400.00 699.00,400.00
             699.00,400.00 733.00,400.00 733.00,400.00
             731.20,394.96 725.31,382.54 734.06,379.99
             736.59,379.26 739.64,381.08 742.00,382.00
             746.42,377.13 750.70,379.02 754.19,384.04
             756.64,387.57 759.90,397.80 763.39,399.43
             764.92,400.14 768.26,400.00 770.00,400.00
             770.00,400.00 835.00,400.00 835.00,400.00
             835.00,400.00 835.00,0.00 835.00,0.00
             835.00,0.00 369.13,0.00 369.13,0.00 Z" />
  <path id="pavimento"
        fill="none" stroke="black" stroke-width="1"
        d="M 867.00,336.14
           C 869.74,336.62 876.32,337.32 877.98,339.56
             879.53,341.65 879.00,351.02 879.00,354.00
             879.00,354.00 857.00,355.00 857.00,355.00
             859.47,362.93 867.11,361.00 874.00,361.00
             873.87,368.10 878.03,368.41 884.00,369.15
             884.00,369.15 913.00,370.00 913.00,370.00
             918.96,369.99 924.83,370.55 925.00,363.00
             925.00,363.00 901.00,361.00 901.00,361.00
             904.31,359.94 904.94,359.31 906.00,356.00
             906.00,356.00 902.00,356.00 902.00,356.00
             902.00,356.00 902.00,347.00 902.00,347.00
             902.00,347.00 968.00,371.58 968.00,371.58
             968.00,371.58 1012.00,388.00 1012.00,388.00
             1004.14,396.00 992.18,389.78 986.00,390.42
             979.04,391.13 973.95,396.78 970.00,402.00
             970.00,402.00 995.00,405.05 995.00,405.05
             995.00,405.05 1004.00,405.05 1004.00,405.05
             1009.01,405.78 1014.06,406.53 1015.00,412.00
             1015.00,412.00 1043.00,416.22 1043.00,416.22
             1043.00,416.22 1060.00,424.67 1060.00,424.67
             1060.00,424.67 1074.78,427.87 1074.78,427.87
             1078.15,429.44 1077.87,432.28 1081.22,435.90
             1084.64,439.59 1089.18,441.30 1094.00,442.33
             1097.86,443.15 1102.45,443.55 1105.90,441.27
             1108.09,439.81 1109.31,437.49 1111.37,436.57
             1113.52,435.62 1117.13,436.33 1120.00,435.57
             1123.39,434.67 1125.17,432.45 1128.00,432.10
             1130.99,431.73 1142.50,436.65 1146.00,437.95
             1146.00,437.95 1174.00,448.34 1174.00,448.34
             1178.46,449.91 1185.54,452.14 1188.26,456.10
             1190.27,459.03 1189.99,462.62 1190.00,466.00
             1190.00,466.00 1190.00,850.00 1190.00,850.00
             1190.00,850.00 0.00,850.00 0.00,850.00
             0.00,850.00 0.00,503.00 0.00,503.00
             0.00,503.00 242.00,503.00 242.00,503.00
             242.82,507.35 245.04,519.56 246.53,523.00
             249.25,529.29 254.24,534.24 259.00,539.00
             261.68,541.68 266.39,547.00 270.00,547.93
             275.32,549.29 279.95,543.66 288.00,543.29
             288.00,543.29 295.00,543.29 295.00,543.29
             295.00,543.29 308.00,542.17 308.00,542.17
             308.00,542.17 321.00,542.17 321.00,542.17
             338.76,542.90 344.34,530.81 353.28,518.00
             355.81,514.37 359.80,506.00 363.10,504.17
             365.61,502.79 369.20,503.00 372.00,503.00
             372.00,503.00 443.21,503.00 443.21,503.00
             443.21,503.00 443.21,529.98 443.21,529.98
             444.84,534.98 450.54,537.60 454.85,534.40
             458.36,531.80 457.99,527.87 458.00,524.00
             458.00,524.00 458.00,503.00 458.00,503.00
             467.50,503.00 486.95,504.00 495.00,499.72
             498.51,497.86 501.91,494.21 504.21,491.00
             510.08,482.81 514.70,466.90 518.00,457.00
             519.06,453.83 522.06,443.73 524.51,442.02
             526.55,440.59 532.40,441.00 535.00,441.00
             541.39,440.99 541.88,440.98 548.00,439.00
             543.11,424.25 536.62,436.48 532.88,423.00
             531.21,417.01 533.32,412.76 534.77,407.00
             535.29,404.94 535.65,402.35 537.51,401.02
             539.27,399.77 542.88,400.00 545.00,400.00
             545.00,400.00 594.00,400.00 594.00,400.00
             594.01,403.19 593.82,407.06 595.31,409.96
             599.58,418.22 615.92,417.96 624.00,418.00
             624.00,418.00 640.00,419.00 640.00,419.00
             640.00,419.00 672.00,417.17 672.00,417.17
             678.64,416.54 682.94,417.60 690.00,415.21
             698.03,412.50 698.93,407.50 699.00,400.00
             699.00,400.00 734.00,400.00 734.00,400.00
             734.00,403.11 733.59,409.31 735.02,411.90
             737.71,416.74 749.00,419.64 753.89,418.24
             755.64,417.73 755.85,417.10 757.00,416.00
             763.77,416.89 766.08,417.68 773.00,416.00
             766.45,406.85 763.31,408.85 763.00,400.00
             763.00,400.00 835.00,400.00 835.00,400.00
             835.00,400.00 835.00,336.14 835.00,336.14
             835.00,336.14 867.00,336.14 867.00,336.14 Z
           M 897.00,355.00
           C 897.00,355.00 883.00,354.00 883.00,354.00
             883.00,354.00 884.00,340.00 884.00,340.00
             896.45,344.16 896.97,343.73 897.00,355.00 Z" />
</svg>
