<?xml version="1.0" encoding="UTF-8" standalone="no"?>
<svg
   xmlns:dc="http://purl.org/dc/elements/1.1/"
   xmlns:cc="http://creativecommons.org/ns#"
   xmlns:rdf="http://www.w3.org/1999/02/22-rdf-syntax-ns#"
   xmlns:svg="http://www.w3.org/2000/svg"
   xmlns="http://www.w3.org/2000/svg"
   xmlns:xlink="http://www.w3.org/1999/xlink"
   xmlns:sodipodi="http://sodipodi.sourceforge.net/DTD/sodipodi-0.dtd"
   xmlns:inkscape="http://www.inkscape.org/namespaces/inkscape"
   width="16.5257in"
   height="11.8041in"
   viewBox="0 0 1190 850"
   id="svg3384"
   version="1.1"
   inkscape:version="0.91 r13725"
   sodipodi:docname="dormitorio_rutas_con_fondo.svg">
  <metadata
     id="metadata3392">
    <rdf:RDF>
      <cc:Work
         rdf:about="">
        <dc:format>image/svg+xml</dc:format>
        <dc:type
           rdf:resource="http://purl.org/dc/dcmitype/StillImage" />
        <dc:title></dc:title>
      </cc:Work>
    </rdf:RDF>
  </metadata>
  <defs
     id="defs3390" />
  <sodipodi:namedview
     pagecolor="#ffffff"
     bordercolor="#666666"
     borderopacity="1"
     objecttolerance="10"
     gridtolerance="10"
     guidetolerance="10"
     inkscape:pageopacity="0"
     inkscape:pageshadow="2"
     inkscape:window-width="1920"
     inkscape:window-height="1015"
     id="namedview3388"
     showgrid="false"
     inkscape:zoom="0.77844892"
     inkscape:cx="743.65648"
     inkscape:cy="531.1845"
     inkscape:window-x="2304"
     inkscape:window-y="100"
     inkscape:window-maximized="1"
     inkscape:current-layer="svg3384" />
  <image
     sodipodi:absref="/home/carlos/conf3d/public/ambientes/amb01/amb.jpg"
     xlink:href="amb.jpg"
     width="1190.1495"
     height="850.10687"
     preserveAspectRatio="none"
     id="image3570"
     x="0"
     y="-0.0010255196" />
  <path
     style="fill:none;fill-rule:evenodd;stroke:#000000;stroke-width:0.80010056px;stroke-linecap:butt;stroke-linejoin:miter;stroke-opacity:1"
     d="m 0,504.05653 502.62719,-0.28418 36.63922,-103.78661 296.00253,-0.75845 -0.11041,-61.28617 35.81741,-0.45796 318.89546,116.91559 0.2781,395.70708 -1190.1495,0 z"
     id="pavimento"
     inkscape:connector-curvature="0"
     sodipodi:nodetypes="cccccccccc"
     inkscape:label="#path3573" />
  <path
     style="fill:none;fill-rule:evenodd;stroke:#000000;stroke-width:0.80010056px;stroke-linecap:butt;stroke-linejoin:miter;stroke-opacity:1"
     d="m 834.48065,0.35605209 0.6545,398.79279791 -298.64417,0.42906 c 0,0 1.77473,-15.68433 -0.17923,-23.14962 -0.68612,-2.62142 -3.92761,-7.11738 -3.92761,-7.11738 0,0 -4.73507,-2.16315 -6.48348,-4.00626 -3.01423,-3.1775 -3.64659,-8.04762 -6.3081,-11.52589 -2.54248,-3.32272 -5.8827,-5.9637 -9.05215,-8.69486 -2.58075,-2.22388 -4.95654,-4.90971 -8.09114,-6.24395 -4.00833,-1.70612 -9.59972,0.89018 -12.92689,-1.92185 -1.90542,-1.61041 -0.45633,-5.45636 -2.31891,-7.11613 -4.64555,-4.1397 -12.19153,-2.49838 -18.29515,-3.70833 -6.67081,-1.3224 -14.61553,0.23446 -20.02925,-3.88137 -1.76531,-1.34209 -1.07582,-4.79545 -2.96618,-5.95479 -2.78536,-1.70824 -6.56646,-0.37311 -9.80205,0.0822 -5.47789,0.77078 -10.8962,2.28591 -15.98899,4.44573 -3.12094,1.32357 -5.65843,3.80368 -8.76959,5.15009 -3.77614,1.6342 -7.9589,2.12251 -11.84284,3.48075 -4.02322,1.40694 -7.70376,3.80095 -11.84098,4.82529 -2.57313,0.63709 -5.29126,1.16686 -7.91397,0.78174 -3.71348,-0.5453 -10.41415,-4.28151 -10.41415,-4.28151 L 371.0408,-0.00102552 Z"
     id="revestimiento"
     inkscape:connector-curvature="0"
     sodipodi:nodetypes="cccscsssssssssssssssccc"
     inkscape:label="#path3575" />
</svg>
