<?xml version="1.0" encoding="UTF-8" standalone="no"?>
<!DOCTYPE svg PUBLIC "-//W3C//DTD SVG 20010904//EN"
              "http://www.w3.org/TR/2001/REC-SVG-20010904/DTD/svg10.dtd">

<svg xmlns="http://www.w3.org/2000/svg"
     width="16.5278in" height="11.8056in"
     viewBox="0 0 1190 850">
  <path id="pared"
        fill="none" stroke="black" stroke-width="1"
        d="M 882.00,217.00
           C 882.00,217.00 898.00,216.00 898.00,216.00
             898.00,216.00 920.00,215.00 920.00,215.00
             920.00,215.00 920.00,229.00 920.00,229.00
             920.00,229.00 921.00,245.00 921.00,245.00
             921.00,245.00 921.00,298.00 921.00,298.00
             921.00,298.00 920.00,314.00 920.00,314.00
             920.00,314.00 920.00,455.00 920.00,455.00
             920.00,455.00 921.00,470.00 921.00,470.00
             921.00,470.00 921.00,544.00 921.00,544.00
             921.00,544.00 856.00,544.00 856.00,544.00
             856.00,544.00 856.00,330.00 856.00,330.00
             856.00,330.00 854.00,302.00 854.00,302.00
             854.00,302.00 854.00,218.00 854.00,218.00
             854.00,218.00 882.00,217.00 882.00,217.00 Z
           M 548.00,225.00
           C 548.00,225.00 567.00,224.00 567.00,224.00
             570.20,224.00 572.87,223.90 576.00,224.79
             583.66,226.96 608.65,242.44 617.00,247.40
             624.78,252.01 641.99,260.16 645.81,268.04
             648.30,273.17 652.27,293.34 653.60,300.00
             653.60,300.00 664.40,351.00 664.40,351.00
             666.24,360.15 668.59,381.77 676.10,387.30
             679.93,390.12 688.21,391.13 693.00,392.00
             693.00,392.00 693.00,491.00 693.00,491.00
             693.00,494.07 693.32,498.08 691.26,500.58
             689.11,503.21 682.31,504.91 679.00,505.86
             679.00,505.86 653.00,514.00 653.00,514.00
             653.00,514.00 604.00,530.00 604.00,530.00
             589.15,535.06 578.26,540.18 562.00,540.00
             562.00,540.00 548.00,539.00 548.00,539.00
             548.00,539.00 523.00,539.00 523.00,539.00
             523.00,539.00 523.00,225.00 523.00,225.00
             523.00,225.00 548.00,225.00 548.00,225.00 Z
           M 434.00,230.00
           C 434.00,230.00 450.00,229.00 450.00,229.00
             450.00,229.00 479.00,228.00 479.00,228.00
             479.00,228.00 495.00,227.00 495.00,227.00
             495.00,227.00 513.00,227.00 513.00,227.00
             513.00,227.00 513.00,538.00 513.00,538.00
             513.00,538.00 487.00,538.00 487.00,538.00
             487.00,538.00 475.00,537.04 475.00,537.04
             475.00,537.04 458.00,537.04 458.00,537.04
             458.00,537.04 441.00,536.00 441.00,536.00
             441.00,536.00 409.00,535.00 409.00,535.00
             409.00,535.00 409.00,231.00 409.00,231.00
             409.00,231.00 434.00,230.00 434.00,230.00 Z
           M 345.00,247.00
           C 345.01,243.64 344.71,237.28 347.56,234.98
             350.06,232.97 356.76,233.10 360.00,232.72
             360.00,232.72 374.00,231.83 374.00,231.83
             374.00,231.83 396.00,230.00 396.00,230.00
             396.00,230.00 396.00,535.00 396.00,535.00
             396.00,535.00 380.00,536.26 380.00,536.26
             380.00,536.26 369.00,538.04 369.00,538.04
             369.00,538.04 357.00,538.04 357.00,538.04
             357.00,538.04 345.00,539.00 345.00,539.00
             345.00,539.00 345.00,247.00 345.00,247.00 Z
           M 217.00,240.00
           C 217.00,240.00 247.00,239.00 247.00,239.00
             247.00,239.00 281.00,237.00 281.00,237.00
             281.00,237.00 302.00,236.00 302.00,236.00
             302.00,236.00 320.00,235.00 320.00,235.00
             320.00,235.00 336.00,235.00 336.00,235.00
             336.00,235.00 336.00,539.00 336.00,539.00
             336.00,539.00 314.00,539.00 314.00,539.00
             314.00,539.00 299.00,538.00 299.00,538.00
             299.00,538.00 283.00,538.00 283.00,538.00
             283.00,538.00 268.00,537.00 268.00,537.00
             268.00,537.00 251.00,537.00 251.00,537.00
             251.00,537.00 236.00,536.00 236.00,536.00
             236.00,536.00 219.00,536.00 219.00,536.00
             219.00,536.00 204.00,535.00 204.00,535.00
             204.00,535.00 204.00,241.00 204.00,241.00
             204.00,241.00 217.00,240.00 217.00,240.00 Z
           M 0.00,315.00
           C 0.00,315.00 0.00,269.00 0.00,269.00
             0.00,264.20 -0.91,254.98 2.51,251.43
             5.69,248.13 12.67,249.05 17.00,249.00
             17.00,249.00 32.00,248.00 32.00,248.00
             32.00,248.00 42.00,248.00 42.00,248.00
             42.00,248.00 57.00,246.96 57.00,246.96
             57.00,246.96 69.00,246.96 69.00,246.96
             69.00,246.96 81.00,246.00 81.00,246.00
             81.00,246.00 101.00,245.00 101.00,245.00
             101.00,245.00 116.00,245.00 116.00,245.00
             116.00,245.00 131.00,243.96 131.00,243.96
             131.00,243.96 144.00,243.96 144.00,243.96
             144.00,243.96 155.00,243.00 155.00,243.00
             155.00,243.00 176.00,242.00 176.00,242.00
             176.00,242.00 176.00,535.00 176.00,535.00
             176.00,535.00 159.00,535.00 159.00,535.00
             159.00,535.00 143.00,534.00 143.00,534.00
             143.00,534.00 128.00,534.00 128.00,534.00
             128.00,534.00 112.00,533.00 112.00,533.00
             112.00,533.00 90.00,533.00 90.00,533.00
             90.00,533.00 74.00,532.00 74.00,532.00
             74.00,532.00 60.00,532.00 60.00,532.00
             60.00,532.00 44.00,531.00 44.00,531.00
             44.00,531.00 0.00,530.00 0.00,530.00
             0.00,530.00 0.00,315.00 0.00,315.00 Z
           M 690.00,292.00
           C 690.00,292.00 671.00,292.00 671.00,292.00
             671.00,292.00 670.00,284.00 670.00,284.00
             678.38,284.08 684.53,285.08 690.00,292.00 Z
           M 693.00,300.00
           C 693.00,300.00 693.00,309.00 693.00,309.00
             693.00,309.00 673.00,309.00 673.00,309.00
             673.00,309.00 673.00,300.00 673.00,300.00
             673.00,300.00 693.00,300.00 693.00,300.00 Z
           M 693.00,316.00
           C 693.00,316.00 693.00,325.00 693.00,325.00
             693.00,325.00 673.00,325.00 673.00,325.00
             673.00,325.00 673.00,316.00 673.00,316.00
             673.00,316.00 693.00,316.00 693.00,316.00 Z
           M 693.00,331.00
           C 693.00,331.00 693.00,340.00 693.00,340.00
             693.00,340.00 673.00,340.00 673.00,340.00
             673.00,340.00 673.00,331.00 673.00,331.00
             673.00,331.00 693.00,331.00 693.00,331.00 Z
           M 693.00,346.00
           C 693.00,346.00 693.00,355.00 693.00,355.00
             693.00,355.00 675.00,355.00 675.00,355.00
             675.00,355.00 674.00,346.00 674.00,346.00
             674.00,346.00 693.00,346.00 693.00,346.00 Z
           M 693.00,360.00
           C 693.00,360.00 693.00,364.00 693.00,364.00
             693.00,364.00 686.00,361.00 686.00,361.00
             686.00,361.00 693.00,360.00 693.00,360.00 Z" />
  <path id="suelo"
        fill="none" stroke="black" stroke-width="1"
        d="M 551.00,539.00
           C 551.00,539.00 563.00,539.91 563.00,539.91
             572.67,540.46 592.17,532.94 602.00,529.67
             602.00,529.67 660.00,510.67 660.00,510.67
             674.27,505.91 688.76,500.02 704.00,500.00
             709.65,499.99 726.82,498.31 729.83,503.23
             731.53,506.02 730.95,513.53 731.00,517.00
             731.05,520.06 731.16,521.05 732.00,524.00
             732.00,524.00 732.00,518.00 732.00,518.00
             732.00,518.00 749.00,518.00 749.00,518.00
             749.00,518.00 765.00,519.00 765.00,519.00
             765.00,519.00 804.00,519.00 804.00,519.00
             804.00,519.00 819.00,520.00 819.00,520.00
             819.00,520.00 840.00,520.00 840.00,520.00
             840.00,520.00 840.00,529.00 840.00,529.00
             840.00,529.00 845.00,529.00 845.00,529.00
             845.00,529.00 849.00,502.00 849.00,502.00
             849.00,502.00 855.00,502.00 855.00,502.00
             855.00,502.00 855.00,544.00 855.00,544.00
             855.00,544.00 921.00,544.00 921.00,544.00
             921.00,544.00 921.00,503.00 921.00,503.00
             921.00,503.00 944.00,503.00 944.00,503.00
             939.42,511.02 935.74,508.63 928.00,508.00
             928.00,508.00 930.44,533.00 930.44,533.00
             931.05,536.88 931.85,540.89 935.13,543.44
             938.63,546.16 943.79,545.99 948.00,546.00
             948.00,546.00 972.00,546.00 972.00,546.00
             972.00,546.00 987.00,547.00 987.00,547.00
             987.00,547.00 1009.00,547.00 1009.00,547.00
             1009.00,547.00 1026.00,548.00 1026.00,548.00
             1026.00,548.00 1069.00,548.00 1069.00,548.00
             1069.00,548.00 1086.00,549.00 1086.00,549.00
             1086.00,549.00 1109.00,549.00 1109.00,549.00
             1109.00,549.00 1126.00,550.00 1126.00,550.00
             1126.00,550.00 1152.00,550.00 1152.00,550.00
             1152.00,550.00 1167.00,551.00 1167.00,551.00
             1167.00,551.00 1190.00,551.00 1190.00,551.00
             1190.00,551.00 1190.00,850.00 1190.00,850.00
             1190.00,850.00 0.00,850.00 0.00,850.00
             0.00,850.00 0.00,648.00 0.00,648.00
             0.00,648.00 16.00,649.00 16.00,649.00
             16.00,649.00 42.00,650.96 42.00,650.96
             42.00,650.96 51.00,650.96 51.00,650.96
             51.00,650.96 73.00,653.00 73.00,653.00
             73.00,653.00 82.00,653.00 82.00,653.00
             82.00,653.00 133.00,656.91 133.00,656.91
             133.00,656.91 157.00,658.42 157.00,658.42
             157.00,658.42 183.00,660.09 183.00,660.09
             188.80,660.48 193.51,662.26 198.90,658.30
             204.01,654.54 203.99,649.70 204.00,644.00
             204.00,644.00 204.00,585.00 204.00,585.00
             204.00,585.00 239.00,586.00 239.00,586.00
             239.00,586.00 256.00,587.00 256.00,587.00
             256.00,587.00 298.00,588.00 298.00,588.00
             298.00,588.00 310.00,588.96 310.00,588.96
             310.00,588.96 323.00,588.96 323.00,588.96
             323.00,588.96 335.00,589.96 335.00,589.96
             335.00,589.96 348.00,589.96 348.00,589.96
             348.00,589.96 360.00,590.96 360.00,590.96
             360.00,590.96 371.00,590.96 371.00,590.96
             371.00,590.96 381.00,591.95 381.00,591.95
             381.00,591.95 397.00,591.95 397.00,591.95
             400.76,591.94 403.72,591.91 406.35,588.77
             409.21,585.36 408.99,581.16 409.00,577.00
             409.00,577.00 409.00,552.00 409.00,552.00
             409.00,552.00 430.00,553.00 430.00,553.00
             430.00,553.00 523.00,555.00 523.00,555.00
             523.00,555.00 523.00,539.00 523.00,539.00
             523.00,539.00 551.00,539.00 551.00,539.00 Z
           M 751.00,500.00
           C 751.00,500.00 767.00,501.00 767.00,501.00
             767.00,501.00 809.00,501.00 809.00,501.00
             809.00,501.00 824.00,502.00 824.00,502.00
             824.00,502.00 840.00,502.00 840.00,502.00
             840.00,502.00 840.00,511.00 840.00,511.00
             840.00,511.00 821.00,511.00 821.00,511.00
             821.00,511.00 805.00,510.00 805.00,510.00
             805.00,510.00 768.00,510.00 768.00,510.00
             768.00,510.00 753.00,509.00 753.00,509.00
             753.00,509.00 732.00,509.00 732.00,509.00
             732.00,509.00 732.00,500.00 732.00,500.00
             732.00,500.00 751.00,500.00 751.00,500.00 Z
           M 1107.00,508.00
           C 1107.00,508.00 1107.00,513.00 1107.00,513.00
             1107.00,513.00 1072.00,513.00 1072.00,513.00
             1072.00,513.00 1072.00,508.00 1072.00,508.00
             1072.00,508.00 1107.00,508.00 1107.00,508.00 Z
           M 1124.00,510.00
           C 1124.00,510.00 1125.00,514.00 1125.00,514.00
             1125.00,514.00 1120.00,514.00 1120.00,514.00
             1120.00,514.00 1122.00,510.00 1122.00,510.00
             1122.00,510.00 1124.00,510.00 1124.00,510.00 Z
           M 358.00,537.61
           C 367.98,535.74 367.30,536.11 377.00,536.00
             377.00,536.00 396.00,535.00 396.00,535.00
             396.00,535.00 396.00,543.00 396.00,543.00
             396.00,543.00 363.00,543.00 363.00,543.00
             363.00,543.00 345.00,542.00 345.00,542.00
             347.83,538.36 353.69,538.42 358.00,537.61 Z
           M 430.00,536.00
           C 430.00,536.00 445.00,537.00 445.00,537.00
             445.00,537.00 460.00,537.00 460.00,537.00
             460.00,537.00 477.00,538.00 477.00,538.00
             477.00,538.00 513.00,538.00 513.00,538.00
             513.00,538.00 513.00,548.00 513.00,548.00
             513.00,548.00 486.00,548.00 486.00,548.00
             486.00,548.00 452.00,546.00 452.00,546.00
             452.00,546.00 424.00,546.00 424.00,546.00
             424.00,546.00 409.00,545.00 409.00,545.00
             409.00,545.00 409.00,536.00 409.00,536.00
             409.00,536.00 430.00,536.00 430.00,536.00 Z
           M 206.51,567.70
           C 206.51,567.70 216.00,564.21 216.00,564.21
             216.00,564.21 235.00,560.12 235.00,560.12
             235.00,560.12 289.00,548.79 289.00,548.79
             289.00,548.79 336.00,539.00 336.00,539.00
             336.00,539.00 336.00,550.00 336.00,550.00
             336.00,550.00 380.00,551.00 380.00,551.00
             380.00,551.00 395.00,552.00 395.00,552.00
             395.00,552.00 396.00,582.00 396.00,582.00
             396.00,582.00 382.00,581.04 382.00,581.04
             382.00,581.04 367.00,581.04 367.00,581.04
             367.00,581.04 351.00,580.00 351.00,580.00
             351.00,580.00 245.00,577.00 245.00,577.00
             245.00,577.00 228.00,575.96 228.00,575.96
             228.00,575.96 214.00,575.96 214.00,575.96
             214.00,575.96 204.00,575.00 204.00,575.00
             204.00,575.00 206.51,567.70 206.51,567.70 Z
           M 0.00,621.00
           C 0.00,617.83 -0.28,613.06 1.85,610.51
             3.92,608.04 9.89,606.88 13.00,606.21
             13.00,606.21 40.00,600.65 40.00,600.65
             40.00,600.65 114.00,585.80 114.00,585.80
             114.00,585.80 176.00,573.00 176.00,573.00
             176.00,573.00 176.00,584.00 176.00,584.00
             176.00,584.00 184.00,584.00 184.00,584.00
             184.00,584.00 184.00,644.00 184.00,644.00
             184.00,644.00 174.00,643.09 174.00,643.09
             174.00,643.09 148.00,642.00 148.00,642.00
             148.00,642.00 138.00,641.04 138.00,641.04
             138.00,641.04 128.00,641.04 128.00,641.04
             128.00,641.04 118.00,640.00 118.00,640.00
             118.00,640.00 108.00,640.00 108.00,640.00
             108.00,640.00 93.00,639.00 93.00,639.00
             93.00,639.00 79.00,638.00 79.00,638.00
             79.00,638.00 38.00,636.00 38.00,636.00
             38.00,636.00 28.00,635.04 28.00,635.04
             28.00,635.04 17.00,635.04 17.00,635.04
             17.00,635.04 0.00,634.00 0.00,634.00
             0.00,634.00 0.00,621.00 0.00,621.00 Z" />
</svg>
